<?xml version="1.0" encoding="iso-8859-1"?>
<!-- Generator: Adobe Illustrator 19.0.0, SVG Export Plug-In . SVG Version: 6.00 Build 0)  -->
<svg xmlns="http://www.w3.org/2000/svg" xmlns:xlink="http://www.w3.org/1999/xlink" version="1.1" id="Capa_1" x="0px" y="0px" viewBox="0 0 496 496" style="enable-background:new 0 0 496 496;" xml:space="preserve" width="512px" height="512px">
<g>
	<g>
		<g>
			<path d="M495.896,111.989c0-0.968,0.088-1.936,0.064-2.904c-0.16-5.976-4.128-11.072-9.856-12.664     c-5.736-1.616-11.744,0.712-14.984,5.752c-12.312,19.216-34.936,28.952-57.656,24.856c-22.192-4.016-40.496-22.32-44.512-44.496     c-4.112-22.72,5.648-45.352,24.864-57.664c5.032-3.224,7.344-9.24,5.752-14.976s-6.688-9.696-12.672-9.856     c-13.84-0.304-27.696,1.976-41.048,6.984C324,15.197,305.576,29.765,292.576,47.989H32v32H0v384h208.808     c3.712,18.232,19.88,32,39.192,32s35.48-13.768,39.192-32H496v-352H495.896z M288.536,101.693     c3.68-35.48,28.384-66.76,62.928-79.696c8.872-3.328,17.968-5.28,27.136-5.832c-20.288,16.48-30.168,42.816-25.384,69.208     c5.256,29.072,28.328,52.144,57.4,57.408c26.416,4.776,52.744-5.104,69.216-25.392c-0.552,9.16-2.512,18.256-5.84,27.144     c-12.944,34.536-44.224,59.24-79.696,62.92c-29.112,3.088-57.624-7.024-78.176-27.568     C295.568,159.325,285.512,130.821,288.536,101.693z M256,63.989h27.024c-5.48,11.248-9.088,23.408-10.4,36.04     c-3.528,33.952,8.208,67.176,32.184,91.16c21.176,21.168,49.552,32.8,79.28,32.792c3.936,0,7.896-0.2,11.864-0.608     c18.912-1.96,36.76-9.056,52.04-19.96v212.576H256V63.989z M48,63.989h192v352H48V63.989z M480,447.989H272v8     c0,13.232-10.768,24-24,24s-24-10.768-24-24v-8H16v-352h16v336h432V189.677c6.088-6.312,11.44-13.376,16-21.024V447.989z" fill="#FFFFFF"/>
			<path d="M64,207.989h160v-128H64V207.989z M80,95.989h128v96H80V95.989z" fill="#FFFFFF"/>
			<rect x="208" y="383.989" width="16" height="16" fill="#FFFFFF"/>
			<rect x="64" y="383.989" width="128" height="16" fill="#FFFFFF"/>
			<rect x="64" y="351.989" width="160" height="16" fill="#FFFFFF"/>
			<rect x="64" y="319.989" width="160" height="16" fill="#FFFFFF"/>
			<rect x="64" y="287.989" width="160" height="16" fill="#FFFFFF"/>
			<rect x="96" y="255.989" width="128" height="16" fill="#FFFFFF"/>
			<rect x="64" y="255.989" width="16" height="16" fill="#FFFFFF"/>
			<rect x="64" y="223.989" width="160" height="16" fill="#FFFFFF"/>
			<rect x="416" y="383.989" width="16" height="16" fill="#FFFFFF"/>
			<rect x="272" y="383.989" width="128" height="16" fill="#FFFFFF"/>
			<rect x="272" y="351.989" width="160" height="16" fill="#FFFFFF"/>
			<rect x="272" y="319.989" width="160" height="16" fill="#FFFFFF"/>
			<rect x="272" y="287.989" width="160" height="16" fill="#FFFFFF"/>
			<rect x="304" y="255.989" width="128" height="16" fill="#FFFFFF"/>
			<rect x="272" y="255.989" width="16" height="16" fill="#FFFFFF"/>
			<rect x="272" y="223.989" width="160" height="16" fill="#FFFFFF"/>
			<path d="M384,71.989c0,22.056,17.944,40,40,40c22.056,0,40-17.944,40-40c0-22.056-17.944-40-40-40     C401.944,31.989,384,49.933,384,71.989z M424,47.989c13.232,0,24,10.768,24,24s-10.768,24-24,24s-24-10.768-24-24     S410.768,47.989,424,47.989z" fill="#FFFFFF"/>
		</g>
	</g>
</g>
<g>
</g>
<g>
</g>
<g>
</g>
<g>
</g>
<g>
</g>
<g>
</g>
<g>
</g>
<g>
</g>
<g>
</g>
<g>
</g>
<g>
</g>
<g>
</g>
<g>
</g>
<g>
</g>
<g>
</g>
</svg>
